<?xml version="1.0" encoding="utf-8"?>
<!-- Generator: Adobe Illustrator 24.2.0, SVG Export Plug-In . SVG Version: 6.00 Build 0)  -->
<svg version="1.1" id="Layer_1" xmlns="http://www.w3.org/2000/svg" xmlns:xlink="http://www.w3.org/1999/xlink" x="0px" y="0px"
	 viewBox="0 0 33.93 34" style="enable-background:new 0 0 33.93 34;" xml:space="preserve">
<style type="text/css">
	.st0{fill:#FFFFFF;}
	.st1{fill:none;stroke:#FFFFFF;stroke-width:0.25;stroke-miterlimit:10;}
	.st2{fill:none;stroke:#FFFFFF;stroke-miterlimit:10;}
	.st3{fill:none;stroke:#7F7F7F;stroke-width:0.25;stroke-miterlimit:10;}
	.st4{display:none;fill:none;stroke:#000000;stroke-miterlimit:10;}
	.st5{fill:none;stroke:#000000;stroke-miterlimit:10;}
</style>
<path d="M16.97,0c9.37,0,17,7.63,17,17s-7.63,17-17,17s-17-7.63-17-17S7.59,0,16.97,0z M16.97,33c8.82,0,16-7.18,16-16
	s-7.18-16-16-16s-16,7.18-16,16S8.14,33,16.97,33z M10.31,17.35l5.49,5.49l0.71-0.71l-4.64-4.64h12.11v-1H11.87l4.64-4.64
	l-0.71-0.71L9.96,17L10.31,17.35z"/>
</svg>
